<?xml version="1.0" encoding="utf-8"?>
<!-- Generator: Adobe Illustrator 21.1.0, SVG Export Plug-In . SVG Version: 6.00 Build 0)  -->
<svg version="1.1" id="Layer_1" xmlns="http://www.w3.org/2000/svg" xmlns:xlink="http://www.w3.org/1999/xlink" x="0px" y="0px"
	 width="72px" height="28px" viewBox="0 0 72 28" style="enable-background:new 0 0 72 28;" xml:space="preserve">
<style type="text/css">
	.st0{fill:#F9F6F5;}
</style>
<g>
	<g>
		<path class="st0" d="M9,17.2L5,6.6H1.7l5.6,14.5l-0.5,1.1c-0.2,0.5-0.4,1-0.7,1.4c-0.2,0.4-0.5,0.7-0.7,0.9
			C5.2,24.7,5,24.9,4.7,25c-0.3,0.1-0.5,0.2-0.8,0.2c-0.4,0-0.7,0-1.1-0.1c-0.4-0.1-0.8-0.2-1.1-0.3l-0.7,2.7
			c0.4,0.1,0.9,0.2,1.5,0.3c0.5,0.1,1.1,0.1,1.5,0.1c0.7,0,1.4-0.1,1.9-0.3c0.5-0.2,1-0.4,1.5-0.8c0.4-0.4,0.8-0.9,1.2-1.5
			c0.4-0.6,0.7-1.3,1-2.1l6.6-16.5H13L9,17.2z M29.7,8.2c-0.5-0.6-1.2-1.1-2-1.4c-0.8-0.3-1.8-0.5-2.9-0.5c-1.3,0-2.4,0.2-3.3,0.6
			c-0.9,0.4-1.6,1-2.2,1.7c-0.6,0.7-1,1.6-1.2,2.6c-0.2,1-0.4,2.1-0.4,3.4c0,2.6,0.6,4.6,1.8,6c1.2,1.3,3,2,5.4,2
			c0.8,0,1.5-0.1,2.1-0.2c0.6-0.1,1.2-0.3,1.6-0.5c0.5-0.2,0.9-0.5,1.3-0.8c0.4-0.3,0.7-0.7,1-1.2l-2.4-1.6c-0.5,0.6-1,1-1.5,1.2
			c-0.5,0.2-1.2,0.4-1.9,0.4c-0.8,0-1.4-0.1-1.9-0.3c-0.5-0.2-0.9-0.5-1.3-0.9c-0.3-0.4-0.6-0.9-0.7-1.5c-0.2-0.6-0.2-1.3-0.2-2
			h10.1v-1.6c0-1.1-0.1-2-0.4-2.9C30.6,9.6,30.2,8.8,29.7,8.2z M21.1,12.7c0.1-0.6,0.2-1.2,0.4-1.7c0.2-0.5,0.4-0.9,0.7-1.2
			c0.3-0.3,0.6-0.6,1-0.8c0.4-0.2,0.9-0.3,1.5-0.3c1.2,0,2,0.3,2.5,1c0.5,0.7,0.8,1.6,0.8,2.9H21.1z M34.7,22h3.2V0.2h-3.2V22z
			 M47.8,17.8L44.1,6.6h-3.3L46.3,22h3l5.5-15.4h-3.2L47.8,17.8z M67.8,6.6l-4,10.5L59.8,6.6h-3.3l5.6,14.5l-0.5,1.1
			c-0.2,0.5-0.4,1-0.7,1.4c-0.2,0.4-0.5,0.7-0.7,0.9c-0.2,0.2-0.5,0.4-0.8,0.5c-0.3,0.1-0.5,0.2-0.8,0.2c-0.4,0-0.7,0-1.1-0.1
			c-0.4-0.1-0.8-0.2-1.1-0.3l-0.7,2.7c0.4,0.1,0.9,0.2,1.5,0.3c0.5,0.1,1.1,0.1,1.5,0.1c0.7,0,1.3-0.1,1.9-0.3
			c0.5-0.2,1-0.4,1.5-0.8c0.4-0.4,0.8-0.9,1.2-1.5c0.4-0.6,0.7-1.3,1-2.1l6.6-16.5H67.8z"/>
	</g>
</g>
</svg>
